<svg viewBox="0 0 400 600" xmlns="http://www.w3.org/2000/svg">
  <defs>
    <linearGradient id="sky-bramblewood-origins" x1="0" y1="0" x2="0" y2="1">
      <stop offset="0%" stop-color="#fbbf24"/>
      <stop offset="100%" stop-color="#f97316"/>
    </linearGradient>
    <linearGradient id="scrim-bramblewood-origins" x1="0" y1="0" x2="0" y2="1">
      <stop offset="0%" stop-color="#000" stop-opacity="0"/>
      <stop offset="100%" stop-color="#000" stop-opacity="0.85"/>
    </linearGradient>
  </defs>
  <rect width="400" height="600" fill="url(#sky-bramblewood-origins)"/>
  <circle cx="320" cy="90" r="46" fill="#fef3c7" opacity="0.9"/>
        <path d="M 0 600 L 0 460 Q 100 452 200 451 T 400 436 L 400 600 Z" fill="#22c55e" opacity="0.9"/>
        <path d="M 0 600 L 0 500 Q 100 486 200 488 T 400 478 L 400 600 Z" fill="#15803d" opacity="1"/>
        <ellipse cx="92" cy="403.4" rx="40.7" ry="44.4" fill="#166534"/>
          <rect x="87.56" y="436.7" width="8.879999999999999" height="33.300000000000004" fill="#166534"/><ellipse cx="324" cy="403.4" rx="40.7" ry="44.4" fill="#166534"/>
          <rect x="319.56" y="436.7" width="8.879999999999999" height="33.300000000000004" fill="#166534"/><ellipse cx="308" cy="376.4" rx="57.2" ry="62.4" fill="#166534"/>
          <rect x="301.76" y="423.2" width="12.48" height="46.800000000000004" fill="#166534"/><ellipse cx="268" cy="414.2" rx="34.1" ry="37.199999999999996" fill="#166534"/>
          <rect x="264.28" y="442.1" width="7.4399999999999995" height="27.900000000000002" fill="#166534"/><ellipse cx="340" cy="387.2" rx="50.6" ry="55.199999999999996" fill="#166534"/>
          <rect x="334.48" y="428.6" width="11.04" height="41.4" fill="#166534"/>
  
  <rect x="0" y="382" width="400" height="218" fill="url(#scrim-bramblewood-origins)"/>
  <text x="200" y="408" font-family="Helvetica, Arial, sans-serif" font-size="11" font-weight="700" letter-spacing="2.5" fill="#fff7ed" text-anchor="middle">ANIMATED ADVENTURE</text>
  <text x="200" y="444" font-family="Georgia, 'Times New Roman', serif" font-size="30" font-weight="700" fill="#fff" text-anchor="middle"><tspan x="200" dy="0">Bramblewood</tspan><tspan x="200" dy="38">Chronicles:</tspan><tspan x="200" dy="38">Origins</tspan></text>
  <text x="200" y="584" font-family="Helvetica, Arial, sans-serif" font-size="9" letter-spacing="0.5" fill="#d4d4d8" text-anchor="middle" opacity="0.85">STARRING NOOR HARTLEY · DIRECTED BY IDRIS OKONKWO</text>
  <rect x="6" y="6" width="388" height="588" fill="none" stroke="#fff" stroke-width="1" opacity="0.15"/>
</svg>