<svg viewBox="0 0 400 600" xmlns="http://www.w3.org/2000/svg">
  <defs>
    <linearGradient id="sky-busters-payback" x1="0" y1="0" x2="0" y2="1">
      <stop offset="0%" stop-color="#fbbf24"/>
      <stop offset="100%" stop-color="#f97316"/>
    </linearGradient>
    <linearGradient id="scrim-busters-payback" x1="0" y1="0" x2="0" y2="1">
      <stop offset="0%" stop-color="#000" stop-opacity="0"/>
      <stop offset="100%" stop-color="#000" stop-opacity="0.85"/>
    </linearGradient>
  </defs>
  <rect width="400" height="600" fill="url(#sky-busters-payback)"/>
  <circle cx="320" cy="90" r="46" fill="#fef3c7" opacity="0.9"/>
        <path d="M 0 600 L 0 460 Q 100 444 200 460 T 400 428 L 400 600 Z" fill="#22c55e" opacity="0.9"/>
        <path d="M 0 600 L 0 500 Q 100 478 200 496 T 400 476 L 400 600 Z" fill="#15803d" opacity="1"/>
        <ellipse cx="84" cy="383.6" rx="52.800000000000004" ry="57.599999999999994" fill="#166534"/>
          <rect x="78.24" y="426.8" width="11.52" height="43.2" fill="#166534"/><ellipse cx="188" cy="387.2" rx="50.6" ry="55.199999999999996" fill="#166534"/>
          <rect x="182.48" y="428.6" width="11.04" height="41.4" fill="#166534"/><ellipse cx="356" cy="414.2" rx="34.1" ry="37.199999999999996" fill="#166534"/>
          <rect x="352.28" y="442.1" width="7.4399999999999995" height="27.900000000000002" fill="#166534"/><ellipse cx="92" cy="372.8" rx="59.400000000000006" ry="64.8" fill="#166534"/>
          <rect x="85.52" y="421.4" width="12.959999999999999" height="48.6" fill="#166534"/><ellipse cx="84" cy="380" rx="55.00000000000001" ry="60" fill="#166534"/>
          <rect x="78" y="425" width="12" height="45" fill="#166534"/>
  
  <rect x="0" y="420" width="400" height="180" fill="url(#scrim-busters-payback)"/>
  <text x="200" y="446" font-family="Helvetica, Arial, sans-serif" font-size="11" font-weight="700" letter-spacing="2.5" fill="#fff7ed" text-anchor="middle">ANIMATED ADVENTURE</text>
  <text x="200" y="482" font-family="Georgia, 'Times New Roman', serif" font-size="30" font-weight="700" fill="#fff" text-anchor="middle"><tspan x="200" dy="0">Buster's Big</tspan><tspan x="200" dy="38">Payback</tspan></text>
  <text x="200" y="584" font-family="Helvetica, Arial, sans-serif" font-size="9" letter-spacing="0.5" fill="#d4d4d8" text-anchor="middle" opacity="0.85">STARRING MARCUS IDOWU · DIRECTED BY TOBIAS RENN</text>
  <rect x="6" y="6" width="388" height="588" fill="none" stroke="#fff" stroke-width="1" opacity="0.15"/>
</svg>