<svg viewBox="0 0 400 600" xmlns="http://www.w3.org/2000/svg">
  <defs>
    <linearGradient id="sky-dragonhunters-lament" x1="0" y1="0" x2="0" y2="1">
      <stop offset="0%" stop-color="#7c2d12"/>
      <stop offset="100%" stop-color="#4c1d95"/>
    </linearGradient>
    <linearGradient id="scrim-dragonhunters-lament" x1="0" y1="0" x2="0" y2="1">
      <stop offset="0%" stop-color="#000" stop-opacity="0"/>
      <stop offset="100%" stop-color="#000" stop-opacity="0.85"/>
    </linearGradient>
  </defs>
  <rect width="400" height="600" fill="url(#sky-dragonhunters-lament)"/>
  
      <circle cx="90" cy="110" r="38" fill="#fde68a" opacity="0.8"/>
      <path d="M 0 600 L 0 420 L 36 288 L 60 404 L 96 292 L 120 416 L 152 336 L 180 420 L 204 300 L 240 412 L 260 328 L 300 416 L 320 352 L 360 404 L 380 304 L 420 404 L 400 600 Z" fill="#1e3a2f" opacity="0.7"/>
      <path d="M 0 600 L 0 480 L 28 440 L 60 472 L 80 392 L 120 468 L 148 432 L 180 464 L 212 404 L 240 476 L 272 388 L 300 468 L 328 404 L 360 480 L 388 436 L 420 468 L 400 600 Z" fill="#14291f" opacity="0.9"/>
      <g transform="translate(260,180) scale(1.1)" opacity="0.85">
    <path d="M -60 10 Q -30 -30 0 -5 Q 30 -30 60 10 Q 30 0 15 15 Q 5 5 0 15 Q -5 5 -15 15 Q -30 0 -60 10 Z" fill="#0f172a"/>
    <ellipse cx="0" cy="15" rx="45" ry="9" fill="#0f172a"/>
    <path d="M 45 15 Q 70 10 85 22 Q 68 20 55 22 Z" fill="#0f172a"/>
  </g>
  
  <rect x="0" y="382" width="400" height="218" fill="url(#scrim-dragonhunters-lament)"/>
  <text x="200" y="408" font-family="Helvetica, Arial, sans-serif" font-size="11" font-weight="700" letter-spacing="2.5" fill="#fde047" text-anchor="middle">FANTASY EPIC</text>
  <text x="200" y="444" font-family="Georgia, 'Times New Roman', serif" font-size="30" font-weight="700" fill="#fff" text-anchor="middle"><tspan x="200" dy="0">The</tspan><tspan x="200" dy="38">Dragonhunter's</tspan><tspan x="200" dy="38">Lament</tspan></text>
  <text x="200" y="584" font-family="Helvetica, Arial, sans-serif" font-size="9" letter-spacing="0.5" fill="#d4d4d8" text-anchor="middle" opacity="0.85">STARRING ELENA VOSS · DIRECTED BY JULIAN MARSH</text>
  <rect x="6" y="6" width="388" height="588" fill="none" stroke="#fff" stroke-width="1" opacity="0.15"/>
</svg>