<svg viewBox="0 0 400 600" xmlns="http://www.w3.org/2000/svg">
  <defs>
    <linearGradient id="sky-kriek-directive" x1="0" y1="0" x2="0" y2="1">
      <stop offset="0%" stop-color="#0f172a"/>
      <stop offset="100%" stop-color="#1e1b4b"/>
    </linearGradient>
    <linearGradient id="scrim-kriek-directive" x1="0" y1="0" x2="0" y2="1">
      <stop offset="0%" stop-color="#000" stop-opacity="0"/>
      <stop offset="100%" stop-color="#000" stop-opacity="0.85"/>
    </linearGradient>
  </defs>
  <rect width="400" height="600" fill="url(#sky-kriek-directive)"/>
  
      <circle cx="320" cy="128" r="1.9000000000000001" fill="#e0e7ff" opacity="0.78"/><circle cx="256" cy="256" r="1.6" fill="#e0e7ff" opacity="0.62"/><circle cx="80" cy="128" r="1.9000000000000001" fill="#e0e7ff" opacity="0.6799999999999999"/><circle cx="96" cy="192" r="1.2000000000000002" fill="#e0e7ff" opacity="0.33999999999999997"/><circle cx="384" cy="128" r="1.7000000000000002" fill="#e0e7ff" opacity="0.52"/><circle cx="32" cy="256" r="2" fill="#e0e7ff" opacity="0.6799999999999999"/><circle cx="208" cy="0" r="1.4" fill="#e0e7ff" opacity="0.6"/><circle cx="80" cy="64" r="1.8" fill="#e0e7ff" opacity="0.5"/><circle cx="112" cy="128" r="1.6" fill="#e0e7ff" opacity="0.32"/><circle cx="112" cy="256" r="1.4" fill="#e0e7ff" opacity="0.32"/><circle cx="320" cy="256" r="1.9000000000000001" fill="#e0e7ff" opacity="0.42"/><circle cx="352" cy="192" r="1.5" fill="#e0e7ff" opacity="0.5800000000000001"/><circle cx="64" cy="192" r="2.2" fill="#e0e7ff" opacity="0.64"/><circle cx="288" cy="128" r="1.2000000000000002" fill="#e0e7ff" opacity="0.38"/><circle cx="48" cy="128" r="1.1" fill="#e0e7ff" opacity="0.45999999999999996"/><circle cx="144" cy="256" r="1.8" fill="#e0e7ff" opacity="0.6"/><circle cx="176" cy="192" r="0.8" fill="#e0e7ff" opacity="0.33999999999999997"/><circle cx="64" cy="256" r="0.8" fill="#e0e7ff" opacity="0.48"/><circle cx="368" cy="64" r="2.2" fill="#e0e7ff" opacity="0.32"/><circle cx="96" cy="192" r="1.3" fill="#e0e7ff" opacity="0.3"/><circle cx="384" cy="64" r="1.1" fill="#e0e7ff" opacity="0.48"/><circle cx="96" cy="128" r="2.1" fill="#e0e7ff" opacity="0.3"/><circle cx="352" cy="64" r="1.9000000000000001" fill="#e0e7ff" opacity="0.54"/><circle cx="32" cy="0" r="1.4" fill="#e0e7ff" opacity="0.6799999999999999"/><circle cx="112" cy="192" r="2.1" fill="#e0e7ff" opacity="0.76"/><circle cx="8" cy="64" r="0.8" fill="#e0e7ff" opacity="0.45999999999999996"/><circle cx="272" cy="256" r="1.7000000000000002" fill="#e0e7ff" opacity="0.45999999999999996"/><circle cx="240" cy="128" r="1.7000000000000002" fill="#e0e7ff" opacity="0.36"/><circle cx="272" cy="192" r="1.1" fill="#e0e7ff" opacity="0.76"/><circle cx="176" cy="256" r="1.6" fill="#e0e7ff" opacity="0.62"/><circle cx="176" cy="0" r="1" fill="#e0e7ff" opacity="0.74"/><circle cx="0" cy="128" r="1.2000000000000002" fill="#e0e7ff" opacity="0.36"/><circle cx="272" cy="128" r="2.2" fill="#e0e7ff" opacity="0.6799999999999999"/><circle cx="16" cy="0" r="2.1" fill="#e0e7ff" opacity="0.38"/><circle cx="144" cy="64" r="1.5" fill="#e0e7ff" opacity="0.44"/><circle cx="304" cy="256" r="0.8" fill="#e0e7ff" opacity="0.74"/><circle cx="352" cy="128" r="1.7000000000000002" fill="#e0e7ff" opacity="0.64"/><circle cx="96" cy="0" r="1.1" fill="#e0e7ff" opacity="0.48"/><circle cx="0" cy="0" r="1.1" fill="#e0e7ff" opacity="0.5"/><circle cx="336" cy="256" r="1" fill="#e0e7ff" opacity="0.62"/><circle cx="160" cy="64" r="2.1" fill="#e0e7ff" opacity="0.38"/><circle cx="288" cy="64" r="2.2" fill="#e0e7ff" opacity="0.45999999999999996"/><circle cx="192" cy="256" r="1.3" fill="#e0e7ff" opacity="0.76"/><circle cx="48" cy="192" r="1.6" fill="#e0e7ff" opacity="0.36"/><circle cx="16" cy="64" r="1.5" fill="#e0e7ff" opacity="0.72"/><circle cx="32" cy="256" r="1.1" fill="#e0e7ff" opacity="0.6"/><circle cx="112" cy="256" r="2" fill="#e0e7ff" opacity="0.5800000000000001"/><circle cx="224" cy="0" r="1.1" fill="#e0e7ff" opacity="0.5800000000000001"/><circle cx="160" cy="128" r="1.6" fill="#e0e7ff" opacity="0.54"/><circle cx="80" cy="128" r="2.1" fill="#e0e7ff" opacity="0.52"/><circle cx="192" cy="128" r="1.7000000000000002" fill="#e0e7ff" opacity="0.4"/><circle cx="48" cy="256" r="1.2000000000000002" fill="#e0e7ff" opacity="0.62"/><circle cx="128" cy="256" r="2.1" fill="#e0e7ff" opacity="0.42"/><circle cx="304" cy="64" r="1.7000000000000002" fill="#e0e7ff" opacity="0.6799999999999999"/><circle cx="48" cy="128" r="0.9" fill="#e0e7ff" opacity="0.5"/><circle cx="272" cy="0" r="0.8" fill="#e0e7ff" opacity="0.45999999999999996"/><circle cx="368" cy="256" r="1.1" fill="#e0e7ff" opacity="0.62"/><circle cx="272" cy="128" r="1.8" fill="#e0e7ff" opacity="0.76"/><circle cx="224" cy="64" r="1.4" fill="#e0e7ff" opacity="0.45999999999999996"/><circle cx="336" cy="256" r="1.8" fill="#e0e7ff" opacity="0.38"/>
      <circle cx="300" cy="120" r="55" fill="#818cf8" opacity="0.85"/>
      <circle cx="300" cy="120" r="70" fill="none" stroke="#a78bfa" stroke-width="2" opacity="0.4"/>
      <path d="M 32 394 H 290" stroke="#a78bfa" stroke-width="1.5" opacity="0.3"/>
              <circle cx="32" cy="394" r="3" fill="#a78bfa" opacity="0.5"/>
              <circle cx="290" cy="394" r="3" fill="#a78bfa" opacity="0.5"/><path d="M 62 202 H 322" stroke="#a78bfa" stroke-width="1.5" opacity="0.3"/>
              <circle cx="62" cy="202" r="3" fill="#a78bfa" opacity="0.5"/>
              <circle cx="322" cy="202" r="3" fill="#a78bfa" opacity="0.5"/><path d="M 108 178 H 298" stroke="#a78bfa" stroke-width="1.5" opacity="0.3"/>
              <circle cx="108" cy="178" r="3" fill="#a78bfa" opacity="0.5"/>
              <circle cx="298" cy="178" r="3" fill="#a78bfa" opacity="0.5"/><path d="M 46 330 H 338" stroke="#a78bfa" stroke-width="1.5" opacity="0.3"/>
              <circle cx="46" cy="330" r="3" fill="#a78bfa" opacity="0.5"/>
              <circle cx="338" cy="330" r="3" fill="#a78bfa" opacity="0.5"/><path d="M 64 162 H 266" stroke="#a78bfa" stroke-width="1.5" opacity="0.3"/>
              <circle cx="64" cy="162" r="3" fill="#a78bfa" opacity="0.5"/>
              <circle cx="266" cy="162" r="3" fill="#a78bfa" opacity="0.5"/><path d="M 100 202 H 290" stroke="#a78bfa" stroke-width="1.5" opacity="0.3"/>
              <circle cx="100" cy="202" r="3" fill="#a78bfa" opacity="0.5"/>
              <circle cx="290" cy="202" r="3" fill="#a78bfa" opacity="0.5"/><path d="M 42 394 H 346" stroke="#a78bfa" stroke-width="1.5" opacity="0.3"/>
              <circle cx="42" cy="394" r="3" fill="#a78bfa" opacity="0.5"/>
              <circle cx="346" cy="394" r="3" fill="#a78bfa" opacity="0.5"/>
      <path d="M 0 600 L 0 480 L 36 434 L 60 476 L 92 394 L 120 468 L 140 444 L 180 468 L 204 444 L 240 476 L 260 424 L 300 464 L 320 440 L 360 464 L 388 412 L 420 472 L 400 600 Z" fill="#1e293b" opacity="0.95"/>
  
  <rect x="0" y="420" width="400" height="180" fill="url(#scrim-kriek-directive)"/>
  <text x="200" y="446" font-family="Helvetica, Arial, sans-serif" font-size="11" font-weight="700" letter-spacing="2.5" fill="#a78bfa" text-anchor="middle">SCIENCE FICTION</text>
  <text x="200" y="482" font-family="Georgia, 'Times New Roman', serif" font-size="30" font-weight="700" fill="#fff" text-anchor="middle"><tspan x="200" dy="0">The Kriek</tspan><tspan x="200" dy="38">Directive</tspan></text>
  <text x="200" y="584" font-family="Helvetica, Arial, sans-serif" font-size="9" letter-spacing="0.5" fill="#d4d4d8" text-anchor="middle" opacity="0.85">STARRING ROWAN ACHEBE · DIRECTED BY CLARA BERGSTRÖM</text>
  <rect x="6" y="6" width="388" height="588" fill="none" stroke="#fff" stroke-width="1" opacity="0.15"/>
</svg>