<svg viewBox="0 0 400 600" xmlns="http://www.w3.org/2000/svg">
  <defs>
    <linearGradient id="sky-labyrinth-rusted-thought" x1="0" y1="0" x2="0" y2="1">
      <stop offset="0%" stop-color="#18181b"/>
      <stop offset="100%" stop-color="#3f3f46"/>
    </linearGradient>
    <linearGradient id="scrim-labyrinth-rusted-thought" x1="0" y1="0" x2="0" y2="1">
      <stop offset="0%" stop-color="#000" stop-opacity="0"/>
      <stop offset="100%" stop-color="#000" stop-opacity="0.85"/>
    </linearGradient>
  </defs>
  <rect width="400" height="600" fill="url(#sky-labyrinth-rusted-thought)"/>
  <rect x="304" y="408" width="32" height="32" fill="#f472b6" opacity="0.11" transform="rotate(0 304 408)"/><rect x="368" y="300" width="78" height="78" fill="#f472b6" opacity="0.08" transform="rotate(104 368 300)"/><rect x="32" y="188" width="86" height="86" fill="#f472b6" opacity="0.09" transform="rotate(224 32 188)"/><rect x="272" y="268" width="24" height="24" fill="#f472b6" opacity="0.2" transform="rotate(88 272 268)"/><rect x="80" y="156" width="80" height="80" fill="#f472b6" opacity="0.1" transform="rotate(64 80 156)"/><rect x="336" y="312" width="66" height="66" fill="#f472b6" opacity="0.13" transform="rotate(0 336 312)"/><circle cx="200" cy="300" r="70" fill="none" stroke="#f472b6" stroke-width="2" opacity="0.5"/>
        <circle cx="200" cy="300" r="20" fill="#f472b6" opacity="0.6"/>
  
  <rect x="0" y="420" width="400" height="180" fill="url(#scrim-labyrinth-rusted-thought)"/>
  <text x="200" y="446" font-family="Helvetica, Arial, sans-serif" font-size="11" font-weight="700" letter-spacing="2.5" fill="#f472b6" text-anchor="middle">ARTHOUSE</text>
  <text x="200" y="482" font-family="Georgia, 'Times New Roman', serif" font-size="30" font-weight="700" fill="#fff" text-anchor="middle"><tspan x="200" dy="0">Labyrinth of</tspan><tspan x="200" dy="38">Rusted Thought</tspan></text>
  <text x="200" y="584" font-family="Helvetica, Arial, sans-serif" font-size="9" letter-spacing="0.5" fill="#d4d4d8" text-anchor="middle" opacity="0.85">STARRING PRIYA ANAND · DIRECTED BY BAXTER FALK</text>
  <rect x="6" y="6" width="388" height="588" fill="none" stroke="#fff" stroke-width="1" opacity="0.15"/>
</svg>