<svg viewBox="0 0 400 600" xmlns="http://www.w3.org/2000/svg">
  <defs>
    <linearGradient id="sky-meadow-king-revenge" x1="0" y1="0" x2="0" y2="1">
      <stop offset="0%" stop-color="#fbbf24"/>
      <stop offset="100%" stop-color="#f97316"/>
    </linearGradient>
    <linearGradient id="scrim-meadow-king-revenge" x1="0" y1="0" x2="0" y2="1">
      <stop offset="0%" stop-color="#000" stop-opacity="0"/>
      <stop offset="100%" stop-color="#000" stop-opacity="0.85"/>
    </linearGradient>
  </defs>
  <rect width="400" height="600" fill="url(#sky-meadow-king-revenge)"/>
  <circle cx="320" cy="90" r="46" fill="#fef3c7" opacity="0.9"/>
        <path d="M 0 600 L 0 460 Q 100 436 200 460 T 400 444 L 400 600 Z" fill="#22c55e" opacity="0.9"/>
        <path d="M 0 600 L 0 500 Q 100 494 200 476 T 400 492 L 400 600 Z" fill="#15803d" opacity="1"/>
        <ellipse cx="52" cy="394.4" rx="46.2" ry="50.4" fill="#166534"/>
          <rect x="46.96" y="432.2" width="10.08" height="37.800000000000004" fill="#166534"/><ellipse cx="164" cy="414.2" rx="34.1" ry="37.199999999999996" fill="#166534"/>
          <rect x="160.28" y="442.1" width="7.4399999999999995" height="27.900000000000002" fill="#166534"/><ellipse cx="108" cy="398" rx="44" ry="48" fill="#166534"/>
          <rect x="103.2" y="434" width="9.6" height="36" fill="#166534"/><ellipse cx="220" cy="410.6" rx="36.300000000000004" ry="39.6" fill="#166534"/>
          <rect x="216.04" y="440.3" width="7.92" height="29.7" fill="#166534"/><ellipse cx="124" cy="405.2" rx="39.6" ry="43.199999999999996" fill="#166534"/>
          <rect x="119.68" y="437.6" width="8.64" height="32.4" fill="#166534"/>
  
  <rect x="0" y="420" width="400" height="180" fill="url(#scrim-meadow-king-revenge)"/>
  <text x="200" y="446" font-family="Helvetica, Arial, sans-serif" font-size="11" font-weight="700" letter-spacing="2.5" fill="#fff7ed" text-anchor="middle">ANIMATED ADVENTURE</text>
  <text x="200" y="482" font-family="Georgia, 'Times New Roman', serif" font-size="30" font-weight="700" fill="#fff" text-anchor="middle"><tspan x="200" dy="0">The Meadow</tspan><tspan x="200" dy="38">King's Revenge</tspan></text>
  <text x="200" y="584" font-family="Helvetica, Arial, sans-serif" font-size="9" letter-spacing="0.5" fill="#d4d4d8" text-anchor="middle" opacity="0.85">STARRING YUSUF ACHEBE · DIRECTED BY PETRA VASILENKO</text>
  <rect x="6" y="6" width="388" height="588" fill="none" stroke="#fff" stroke-width="1" opacity="0.15"/>
</svg>