<svg viewBox="0 0 400 600" xmlns="http://www.w3.org/2000/svg">
  <defs>
    <linearGradient id="sky-series-bramblewood-kids" x1="0" y1="0" x2="0" y2="1">
      <stop offset="0%" stop-color="#fbbf24"/>
      <stop offset="100%" stop-color="#f97316"/>
    </linearGradient>
    <linearGradient id="scrim-series-bramblewood-kids" x1="0" y1="0" x2="0" y2="1">
      <stop offset="0%" stop-color="#000" stop-opacity="0"/>
      <stop offset="100%" stop-color="#000" stop-opacity="0.85"/>
    </linearGradient>
  </defs>
  <rect width="400" height="600" fill="url(#sky-series-bramblewood-kids)"/>
  <circle cx="320" cy="90" r="46" fill="#fef3c7" opacity="0.9"/>
        <path d="M 0 600 L 0 460 Q 100 452 200 452 T 400 436 L 400 600 Z" fill="#22c55e" opacity="0.9"/>
        <path d="M 0 600 L 0 500 Q 100 484 200 480 T 400 478 L 400 600 Z" fill="#15803d" opacity="1"/>
        <ellipse cx="204" cy="390.8" rx="48.400000000000006" ry="52.8" fill="#166534"/>
          <rect x="198.72" y="430.4" width="10.559999999999999" height="39.6" fill="#166534"/><ellipse cx="92" cy="387.2" rx="50.6" ry="55.199999999999996" fill="#166534"/>
          <rect x="86.48" y="428.6" width="11.04" height="41.4" fill="#166534"/><ellipse cx="308" cy="416" rx="33" ry="36" fill="#166534"/>
          <rect x="304.4" y="443" width="7.199999999999999" height="27" fill="#166534"/><ellipse cx="364" cy="412.4" rx="35.2" ry="38.4" fill="#166534"/>
          <rect x="360.16" y="441.2" width="7.68" height="28.8" fill="#166534"/><ellipse cx="244" cy="398" rx="44" ry="48" fill="#166534"/>
          <rect x="239.2" y="434" width="9.6" height="36" fill="#166534"/>
  
  <rect x="0" y="420" width="400" height="180" fill="url(#scrim-series-bramblewood-kids)"/>
  <text x="200" y="446" font-family="Helvetica, Arial, sans-serif" font-size="11" font-weight="700" letter-spacing="2.5" fill="#fff7ed" text-anchor="middle">SERIES</text>
  <text x="200" y="482" font-family="Georgia, 'Times New Roman', serif" font-size="30" font-weight="700" fill="#fff" text-anchor="middle"><tspan x="200" dy="0">Bramblewood</tspan><tspan x="200" dy="38">Kids</tspan></text>
  <text x="200" y="584" font-family="Helvetica, Arial, sans-serif" font-size="9" letter-spacing="0.5" fill="#d4d4d8" text-anchor="middle" opacity="0.85">STARRING NOOR HARTLEY</text>
  <rect x="6" y="6" width="388" height="588" fill="none" stroke="#fff" stroke-width="1" opacity="0.15"/>
</svg>