<svg viewBox="0 0 400 600" xmlns="http://www.w3.org/2000/svg">
  <defs>
    <linearGradient id="sky-series-learning-iptv" x1="0" y1="0" x2="0" y2="1">
      <stop offset="0%" stop-color="#fbbf24"/>
      <stop offset="100%" stop-color="#f97316"/>
    </linearGradient>
    <linearGradient id="scrim-series-learning-iptv" x1="0" y1="0" x2="0" y2="1">
      <stop offset="0%" stop-color="#000" stop-opacity="0"/>
      <stop offset="100%" stop-color="#000" stop-opacity="0.85"/>
    </linearGradient>
  </defs>
  <rect width="400" height="600" fill="url(#sky-series-learning-iptv)"/>
  <circle cx="320" cy="90" r="46" fill="#fef3c7" opacity="0.9"/>
        <path d="M 0 600 L 0 460 Q 100 444 200 428 T 400 444 L 400 600 Z" fill="#22c55e" opacity="0.9"/>
        <path d="M 0 600 L 0 500 Q 100 474 200 488 T 400 494 L 400 600 Z" fill="#15803d" opacity="1"/>
        <ellipse cx="348" cy="403.4" rx="40.7" ry="44.4" fill="#166534"/>
          <rect x="343.56" y="436.7" width="8.879999999999999" height="33.300000000000004" fill="#166534"/><ellipse cx="260" cy="385.4" rx="51.7" ry="56.4" fill="#166534"/>
          <rect x="254.36" y="427.7" width="11.28" height="42.300000000000004" fill="#166534"/><ellipse cx="324" cy="408.8" rx="37.400000000000006" ry="40.8" fill="#166534"/>
          <rect x="319.92" y="439.4" width="8.16" height="30.6" fill="#166534"/><ellipse cx="220" cy="401.6" rx="41.800000000000004" ry="45.6" fill="#166534"/>
          <rect x="215.44" y="435.8" width="9.12" height="34.2" fill="#166534"/><ellipse cx="188" cy="403.4" rx="40.7" ry="44.4" fill="#166534"/>
          <rect x="183.56" y="436.7" width="8.879999999999999" height="33.300000000000004" fill="#166534"/>
  
  <rect x="0" y="478" width="400" height="122" fill="url(#scrim-series-learning-iptv)"/>
  <text x="200" y="504" font-family="Helvetica, Arial, sans-serif" font-size="11" font-weight="700" letter-spacing="2.5" fill="#fff7ed" text-anchor="middle">SERIES</text>
  <text x="200" y="540" font-family="Georgia, 'Times New Roman', serif" font-size="30" font-weight="700" fill="#fff" text-anchor="middle"><tspan x="200" dy="0">Learning IPTV</tspan></text>
  
  <rect x="6" y="6" width="388" height="588" fill="none" stroke="#fff" stroke-width="1" opacity="0.15"/>
</svg>