<svg viewBox="0 0 400 600" xmlns="http://www.w3.org/2000/svg">
  <defs>
    <linearGradient id="sky-silent-frequency" x1="0" y1="0" x2="0" y2="1">
      <stop offset="0%" stop-color="#0c4a6e"/>
      <stop offset="100%" stop-color="#155e75"/>
    </linearGradient>
    <linearGradient id="scrim-silent-frequency" x1="0" y1="0" x2="0" y2="1">
      <stop offset="0%" stop-color="#000" stop-opacity="0"/>
      <stop offset="100%" stop-color="#000" stop-opacity="0.85"/>
    </linearGradient>
  </defs>
  <rect width="400" height="600" fill="url(#sky-silent-frequency)"/>
  
      <circle cx="200" cy="220" r="26" fill="none" stroke="#5eead4" stroke-width="2" opacity="0.38"/><circle cx="200" cy="220" r="52" fill="none" stroke="#5eead4" stroke-width="2" opacity="0.26"/><circle cx="200" cy="220" r="78" fill="none" stroke="#5eead4" stroke-width="2" opacity="0.14"/>
      <circle cx="200" cy="220" r="10" fill="#5eead4"/>
      <rect x="30" y="376.5" width="6.678571428571429" height="47" rx="3.0357142857142856" fill="#5eead4" opacity="0.5"/><rect x="42.14285714285714" y="356.5" width="6.678571428571429" height="87" rx="3.0357142857142856" fill="#5eead4" opacity="0.58"/><rect x="54.285714285714285" y="376.5" width="6.678571428571429" height="47" rx="3.0357142857142856" fill="#5eead4" opacity="0.74"/><rect x="66.42857142857143" y="388.5" width="6.678571428571429" height="23" rx="3.0357142857142856" fill="#5eead4" opacity="0.8200000000000001"/><rect x="78.57142857142857" y="356.5" width="6.678571428571429" height="87" rx="3.0357142857142856" fill="#5eead4" opacity="0.5"/><rect x="90.71428571428571" y="368.5" width="6.678571428571429" height="63" rx="3.0357142857142856" fill="#5eead4" opacity="0.8200000000000001"/><rect x="102.85714285714286" y="352.5" width="6.678571428571429" height="95" rx="3.0357142857142856" fill="#5eead4" opacity="0.5"/><rect x="115" y="388.5" width="6.678571428571429" height="23" rx="3.0357142857142856" fill="#5eead4" opacity="0.58"/><rect x="127.14285714285714" y="344.5" width="6.678571428571429" height="111" rx="3.0357142857142856" fill="#5eead4" opacity="0.8200000000000001"/><rect x="139.28571428571428" y="368.5" width="6.678571428571429" height="63" rx="3.0357142857142856" fill="#5eead4" opacity="0.74"/><rect x="151.42857142857142" y="376.5" width="6.678571428571429" height="47" rx="3.0357142857142856" fill="#5eead4" opacity="0.58"/><rect x="163.57142857142856" y="376.5" width="6.678571428571429" height="47" rx="3.0357142857142856" fill="#5eead4" opacity="0.8200000000000001"/><rect x="175.71428571428572" y="336.5" width="6.678571428571429" height="127" rx="3.0357142857142856" fill="#5eead4" opacity="0.5"/><rect x="187.85714285714286" y="352.5" width="6.678571428571429" height="95" rx="3.0357142857142856" fill="#5eead4" opacity="0.66"/><rect x="200" y="380.5" width="6.678571428571429" height="39" rx="3.0357142857142856" fill="#5eead4" opacity="0.66"/><rect x="212.14285714285714" y="352.5" width="6.678571428571429" height="95" rx="3.0357142857142856" fill="#5eead4" opacity="0.5"/><rect x="224.28571428571428" y="360.5" width="6.678571428571429" height="79" rx="3.0357142857142856" fill="#5eead4" opacity="0.8200000000000001"/><rect x="236.42857142857142" y="372.5" width="6.678571428571429" height="55" rx="3.0357142857142856" fill="#5eead4" opacity="0.5"/><rect x="248.57142857142856" y="336.5" width="6.678571428571429" height="127" rx="3.0357142857142856" fill="#5eead4" opacity="0.66"/><rect x="260.71428571428567" y="376.5" width="6.678571428571429" height="47" rx="3.0357142857142856" fill="#5eead4" opacity="0.74"/><rect x="272.85714285714283" y="348.5" width="6.678571428571429" height="103" rx="3.0357142857142856" fill="#5eead4" opacity="0.74"/><rect x="285" y="336.5" width="6.678571428571429" height="127" rx="3.0357142857142856" fill="#5eead4" opacity="0.66"/><rect x="297.1428571428571" y="384.5" width="6.678571428571429" height="31" rx="3.0357142857142856" fill="#5eead4" opacity="0.58"/><rect x="309.2857142857143" y="380.5" width="6.678571428571429" height="39" rx="3.0357142857142856" fill="#5eead4" opacity="0.5"/><rect x="321.42857142857144" y="364.5" width="6.678571428571429" height="71" rx="3.0357142857142856" fill="#5eead4" opacity="0.5"/><rect x="333.57142857142856" y="340.5" width="6.678571428571429" height="119" rx="3.0357142857142856" fill="#5eead4" opacity="0.74"/><rect x="345.7142857142857" y="384.5" width="6.678571428571429" height="31" rx="3.0357142857142856" fill="#5eead4" opacity="0.8200000000000001"/><rect x="357.85714285714283" y="356.5" width="6.678571428571429" height="87" rx="3.0357142857142856" fill="#5eead4" opacity="0.66"/>
      <rect x="140" y="440" width="120" height="34" rx="6" fill="#5eead4" opacity="0.9"/>
      <text x="200" y="463" font-family="Helvetica, Arial, sans-serif" font-size="16" font-weight="700" fill="#0c4a6e" text-anchor="middle">CC</text>
  
  <rect x="0" y="440" width="400" height="160" fill="url(#scrim-silent-frequency)"/>
  <text x="200" y="466" font-family="Helvetica, Arial, sans-serif" font-size="11" font-weight="700" letter-spacing="2.5" fill="#5eead4" text-anchor="middle">MULTI-AUDIO / SUBTITLES</text>
  <text x="200" y="502" font-family="Georgia, 'Times New Roman', serif" font-size="30" font-weight="700" fill="#fff" text-anchor="middle"><tspan x="200" dy="0">Silent</tspan><tspan x="200" dy="38">Frequency</tspan></text>
  
  <rect x="6" y="6" width="388" height="588" fill="none" stroke="#fff" stroke-width="1" opacity="0.15"/>
</svg>