<svg viewBox="0 0 400 600" xmlns="http://www.w3.org/2000/svg">
  <defs>
    <linearGradient id="bg" x1="0" y1="0" x2="1" y2="1">
      <stop offset="0%" stop-color="#0c4a6e"/>
      <stop offset="100%" stop-color="#155e75"/>
    </linearGradient>
  </defs>
  <rect width="400" height="600" fill="url(#bg)"/>
  <rect x="20" y="444" width="6" height="52" rx="3" fill="#5eead4" opacity="0.5"/><rect x="35.6" y="420" width="6" height="100" rx="3" fill="#5eead4" opacity="0.5"/><rect x="51.2" y="424" width="6" height="92" rx="3" fill="#5eead4" opacity="0.5"/><rect x="66.8" y="416" width="6" height="108" rx="3" fill="#5eead4" opacity="0.5"/><rect x="82.4" y="444" width="6" height="52" rx="3" fill="#5eead4" opacity="0.5"/><rect x="98" y="443" width="6" height="54" rx="3" fill="#5eead4" opacity="0.5"/><rect x="113.6" y="426" width="6" height="88" rx="3" fill="#5eead4" opacity="0.5"/><rect x="129.2" y="454" width="6" height="32" rx="3" fill="#5eead4" opacity="0.5"/><rect x="144.8" y="454" width="6" height="32" rx="3" fill="#5eead4" opacity="0.5"/><rect x="160.4" y="420" width="6" height="100" rx="3" fill="#5eead4" opacity="0.5"/><rect x="176" y="451" width="6" height="38" rx="3" fill="#5eead4" opacity="0.5"/><rect x="191.6" y="419" width="6" height="102" rx="3" fill="#5eead4" opacity="0.5"/><rect x="207.2" y="435" width="6" height="70" rx="3" fill="#5eead4" opacity="0.5"/><rect x="222.79999999999998" y="455" width="6" height="30" rx="3" fill="#5eead4" opacity="0.5"/><rect x="238.4" y="456" width="6" height="28" rx="3" fill="#5eead4" opacity="0.5"/><rect x="254" y="456" width="6" height="28" rx="3" fill="#5eead4" opacity="0.5"/><rect x="269.6" y="442" width="6" height="56" rx="3" fill="#5eead4" opacity="0.5"/><rect x="285.2" y="444" width="6" height="52" rx="3" fill="#5eead4" opacity="0.5"/><rect x="300.8" y="451" width="6" height="38" rx="3" fill="#5eead4" opacity="0.5"/><rect x="316.4" y="418" width="6" height="104" rx="3" fill="#5eead4" opacity="0.5"/><rect x="332" y="429" width="6" height="82" rx="3" fill="#5eead4" opacity="0.5"/><rect x="347.59999999999997" y="456" width="6" height="28" rx="3" fill="#5eead4" opacity="0.5"/><rect x="363.2" y="459" width="6" height="22" rx="3" fill="#5eead4" opacity="0.5"/><rect x="378.8" y="444" width="6" height="52" rx="3" fill="#5eead4" opacity="0.5"/>
  <rect x="0" y="0" width="400" height="600" fill="#000" opacity="0.08"/>
  <rect x="20" y="20" width="70" height="28" rx="6" fill="#5eead4" opacity="0.9"/>
       <text x="55" y="39" font-family="Helvetica, Arial, sans-serif" font-size="13" font-weight="700" fill="#111" text-anchor="middle">CC/MULTI-AUDIO</text>
  <text x="200" y="300" font-family="Georgia, 'Times New Roman', serif" font-size="34" font-weight="700" fill="#fff" text-anchor="middle" style="letter-spacing:0.5px"><tspan x="200" dy="0">Silent Frequency</tspan></text>
  <line x1="140" y1="332" x2="260" y2="332" stroke="#5eead4" stroke-width="2" opacity="0.6"/>
</svg>