<svg viewBox="0 0 400 600" xmlns="http://www.w3.org/2000/svg">
  <defs>
    <linearGradient id="sky-static-cathedral" x1="0" y1="0" x2="0" y2="1">
      <stop offset="0%" stop-color="#18181b"/>
      <stop offset="100%" stop-color="#3f3f46"/>
    </linearGradient>
    <linearGradient id="scrim-static-cathedral" x1="0" y1="0" x2="0" y2="1">
      <stop offset="0%" stop-color="#000" stop-opacity="0"/>
      <stop offset="100%" stop-color="#000" stop-opacity="0.85"/>
    </linearGradient>
  </defs>
  <rect width="400" height="600" fill="url(#sky-static-cathedral)"/>
  <rect x="224" y="376" width="42" height="42" fill="#f472b6" opacity="0.19" transform="rotate(72 224 376)"/><rect x="240" y="288" width="46" height="46" fill="#f472b6" opacity="0.22000000000000003" transform="rotate(272 240 288)"/><rect x="0" y="200" width="70" height="70" fill="#f472b6" opacity="0.15000000000000002" transform="rotate(328 0 200)"/><rect x="352" y="336" width="54" height="54" fill="#f472b6" opacity="0.21000000000000002" transform="rotate(344 352 336)"/><rect x="368" y="184" width="56" height="56" fill="#f472b6" opacity="0.21000000000000002" transform="rotate(224 368 184)"/><rect x="336" y="324" width="58" height="58" fill="#f472b6" opacity="0.1" transform="rotate(248 336 324)"/><circle cx="200" cy="300" r="70" fill="none" stroke="#f472b6" stroke-width="2" opacity="0.5"/>
        <circle cx="200" cy="300" r="20" fill="#f472b6" opacity="0.6"/>
  
  <rect x="0" y="420" width="400" height="180" fill="url(#scrim-static-cathedral)"/>
  <text x="200" y="446" font-family="Helvetica, Arial, sans-serif" font-size="11" font-weight="700" letter-spacing="2.5" fill="#f472b6" text-anchor="middle">ARTHOUSE</text>
  <text x="200" y="482" font-family="Georgia, 'Times New Roman', serif" font-size="30" font-weight="700" fill="#fff" text-anchor="middle"><tspan x="200" dy="0">Static</tspan><tspan x="200" dy="38">Cathedral</tspan></text>
  <text x="200" y="584" font-family="Helvetica, Arial, sans-serif" font-size="9" letter-spacing="0.5" fill="#d4d4d8" text-anchor="middle" opacity="0.85">STARRING SELENE OKONKWO · DIRECTED BY LIV BJÖRK</text>
  <rect x="6" y="6" width="388" height="588" fill="none" stroke="#fff" stroke-width="1" opacity="0.15"/>
</svg>