<svg viewBox="0 0 400 600" xmlns="http://www.w3.org/2000/svg">
  <defs>
    <linearGradient id="sky-steelbound-reclamation" x1="0" y1="0" x2="0" y2="1">
      <stop offset="0%" stop-color="#0f172a"/>
      <stop offset="100%" stop-color="#1e1b4b"/>
    </linearGradient>
    <linearGradient id="scrim-steelbound-reclamation" x1="0" y1="0" x2="0" y2="1">
      <stop offset="0%" stop-color="#000" stop-opacity="0"/>
      <stop offset="100%" stop-color="#000" stop-opacity="0.85"/>
    </linearGradient>
  </defs>
  <rect width="400" height="600" fill="url(#sky-steelbound-reclamation)"/>
  
      <circle cx="0" cy="0" r="1.2000000000000002" fill="#e0e7ff" opacity="0.52"/><circle cx="128" cy="64" r="1.6" fill="#e0e7ff" opacity="0.52"/><circle cx="176" cy="64" r="1.2000000000000002" fill="#e0e7ff" opacity="0.72"/><circle cx="368" cy="192" r="1.2000000000000002" fill="#e0e7ff" opacity="0.38"/><circle cx="352" cy="0" r="1.6" fill="#e0e7ff" opacity="0.78"/><circle cx="144" cy="64" r="1.7000000000000002" fill="#e0e7ff" opacity="0.52"/><circle cx="64" cy="64" r="2" fill="#e0e7ff" opacity="0.48"/><circle cx="64" cy="192" r="2.2" fill="#e0e7ff" opacity="0.7"/><circle cx="80" cy="0" r="1.2000000000000002" fill="#e0e7ff" opacity="0.6"/><circle cx="368" cy="192" r="1.1" fill="#e0e7ff" opacity="0.56"/><circle cx="320" cy="256" r="1.4" fill="#e0e7ff" opacity="0.36"/><circle cx="144" cy="0" r="1.7000000000000002" fill="#e0e7ff" opacity="0.6599999999999999"/><circle cx="336" cy="256" r="2.1" fill="#e0e7ff" opacity="0.4"/><circle cx="144" cy="192" r="1.2000000000000002" fill="#e0e7ff" opacity="0.5"/><circle cx="0" cy="192" r="2.2" fill="#e0e7ff" opacity="0.48"/><circle cx="240" cy="64" r="0.9" fill="#e0e7ff" opacity="0.6"/><circle cx="0" cy="256" r="1.8" fill="#e0e7ff" opacity="0.33999999999999997"/><circle cx="48" cy="256" r="1.2000000000000002" fill="#e0e7ff" opacity="0.5800000000000001"/><circle cx="192" cy="128" r="1.1" fill="#e0e7ff" opacity="0.72"/><circle cx="64" cy="0" r="1.8" fill="#e0e7ff" opacity="0.42"/><circle cx="176" cy="0" r="1.6" fill="#e0e7ff" opacity="0.36"/><circle cx="224" cy="256" r="2" fill="#e0e7ff" opacity="0.42"/><circle cx="128" cy="128" r="1.3" fill="#e0e7ff" opacity="0.5"/><circle cx="384" cy="0" r="1.3" fill="#e0e7ff" opacity="0.38"/><circle cx="64" cy="64" r="1.7000000000000002" fill="#e0e7ff" opacity="0.76"/><circle cx="80" cy="192" r="1.2000000000000002" fill="#e0e7ff" opacity="0.3"/><circle cx="304" cy="128" r="0.8" fill="#e0e7ff" opacity="0.36"/><circle cx="144" cy="256" r="1.7000000000000002" fill="#e0e7ff" opacity="0.52"/><circle cx="304" cy="192" r="1.9000000000000001" fill="#e0e7ff" opacity="0.72"/><circle cx="336" cy="0" r="1.1" fill="#e0e7ff" opacity="0.32"/><circle cx="320" cy="256" r="0.8" fill="#e0e7ff" opacity="0.6599999999999999"/><circle cx="352" cy="256" r="1.6" fill="#e0e7ff" opacity="0.42"/><circle cx="336" cy="128" r="1" fill="#e0e7ff" opacity="0.4"/><circle cx="96" cy="256" r="1.9000000000000001" fill="#e0e7ff" opacity="0.78"/><circle cx="64" cy="64" r="1" fill="#e0e7ff" opacity="0.5800000000000001"/><circle cx="224" cy="256" r="2.1" fill="#e0e7ff" opacity="0.36"/><circle cx="384" cy="0" r="0.8" fill="#e0e7ff" opacity="0.33999999999999997"/><circle cx="32" cy="128" r="1.6" fill="#e0e7ff" opacity="0.56"/><circle cx="352" cy="0" r="1.1" fill="#e0e7ff" opacity="0.6"/><circle cx="288" cy="128" r="1.2000000000000002" fill="#e0e7ff" opacity="0.33999999999999997"/><circle cx="320" cy="64" r="1.7000000000000002" fill="#e0e7ff" opacity="0.6799999999999999"/><circle cx="336" cy="256" r="2" fill="#e0e7ff" opacity="0.33999999999999997"/><circle cx="368" cy="192" r="1.9000000000000001" fill="#e0e7ff" opacity="0.54"/><circle cx="377" cy="256" r="1.4" fill="#e0e7ff" opacity="0.6"/><circle cx="352" cy="128" r="1.6" fill="#e0e7ff" opacity="0.38"/><circle cx="192" cy="256" r="1.6" fill="#e0e7ff" opacity="0.33999999999999997"/><circle cx="160" cy="248" r="2.1" fill="#e0e7ff" opacity="0.45999999999999996"/><circle cx="176" cy="64" r="1.4" fill="#e0e7ff" opacity="0.6799999999999999"/><circle cx="48" cy="256" r="1.9000000000000001" fill="#e0e7ff" opacity="0.7"/><circle cx="208" cy="64" r="1.4" fill="#e0e7ff" opacity="0.5800000000000001"/><circle cx="16" cy="192" r="0.9" fill="#e0e7ff" opacity="0.6599999999999999"/><circle cx="352" cy="64" r="2.1" fill="#e0e7ff" opacity="0.52"/><circle cx="208" cy="128" r="1.9000000000000001" fill="#e0e7ff" opacity="0.44"/><circle cx="96" cy="256" r="1.5" fill="#e0e7ff" opacity="0.36"/><circle cx="208" cy="128" r="2.2" fill="#e0e7ff" opacity="0.6599999999999999"/><circle cx="96" cy="128" r="1.1" fill="#e0e7ff" opacity="0.76"/><circle cx="240" cy="256" r="0.8" fill="#e0e7ff" opacity="0.78"/><circle cx="160" cy="256" r="1.2000000000000002" fill="#e0e7ff" opacity="0.4"/><circle cx="272" cy="0" r="2" fill="#e0e7ff" opacity="0.42"/><circle cx="96" cy="64" r="2.1" fill="#e0e7ff" opacity="0.4"/>
      <circle cx="300" cy="120" r="55" fill="#818cf8" opacity="0.85"/>
      <circle cx="300" cy="120" r="70" fill="none" stroke="#a78bfa" stroke-width="2" opacity="0.4"/>
      <path d="M 36 266 H 346" stroke="#a78bfa" stroke-width="1.5" opacity="0.3"/>
              <circle cx="36" cy="266" r="3" fill="#a78bfa" opacity="0.5"/>
              <circle cx="346" cy="266" r="3" fill="#a78bfa" opacity="0.5"/><path d="M 68 330 H 338" stroke="#a78bfa" stroke-width="1.5" opacity="0.3"/>
              <circle cx="68" cy="330" r="3" fill="#a78bfa" opacity="0.5"/>
              <circle cx="338" cy="330" r="3" fill="#a78bfa" opacity="0.5"/><path d="M 134 258 H 306" stroke="#a78bfa" stroke-width="1.5" opacity="0.3"/>
              <circle cx="134" cy="258" r="3" fill="#a78bfa" opacity="0.5"/>
              <circle cx="306" cy="258" r="3" fill="#a78bfa" opacity="0.5"/><path d="M 142 282 H 290" stroke="#a78bfa" stroke-width="1.5" opacity="0.3"/>
              <circle cx="142" cy="282" r="3" fill="#a78bfa" opacity="0.5"/>
              <circle cx="290" cy="282" r="3" fill="#a78bfa" opacity="0.5"/><path d="M 40 330 H 258" stroke="#a78bfa" stroke-width="1.5" opacity="0.3"/>
              <circle cx="40" cy="330" r="3" fill="#a78bfa" opacity="0.5"/>
              <circle cx="258" cy="330" r="3" fill="#a78bfa" opacity="0.5"/><path d="M 144 218 H 338" stroke="#a78bfa" stroke-width="1.5" opacity="0.3"/>
              <circle cx="144" cy="218" r="3" fill="#a78bfa" opacity="0.5"/>
              <circle cx="338" cy="218" r="3" fill="#a78bfa" opacity="0.5"/><path d="M 20 290 H 330" stroke="#a78bfa" stroke-width="1.5" opacity="0.3"/>
              <circle cx="20" cy="290" r="3" fill="#a78bfa" opacity="0.5"/>
              <circle cx="330" cy="290" r="3" fill="#a78bfa" opacity="0.5"/>
      <path d="M 0 600 L 0 480 L 28 408 L 60 468 L 84 420 L 120 472 L 156 420 L 180 472 L 200 406 L 240 464 L 272 440 L 300 468 L 328 440 L 360 464 L 384 418 L 420 476 L 400 600 Z" fill="#1e293b" opacity="0.95"/>
  
  <rect x="0" y="420" width="400" height="180" fill="url(#scrim-steelbound-reclamation)"/>
  <text x="200" y="446" font-family="Helvetica, Arial, sans-serif" font-size="11" font-weight="700" letter-spacing="2.5" fill="#a78bfa" text-anchor="middle">SCIENCE FICTION</text>
  <text x="200" y="482" font-family="Georgia, 'Times New Roman', serif" font-size="30" font-weight="700" fill="#fff" text-anchor="middle"><tspan x="200" dy="0">Steelbound:</tspan><tspan x="200" dy="38">Reclamation</tspan></text>
  <text x="200" y="584" font-family="Helvetica, Arial, sans-serif" font-size="9" letter-spacing="0.5" fill="#d4d4d8" text-anchor="middle" opacity="0.85">STARRING IDRIS OKONKWO · DIRECTED BY YUSUF ACHEBE</text>
  <rect x="6" y="6" width="388" height="588" fill="none" stroke="#fff" stroke-width="1" opacity="0.15"/>
</svg>