<svg viewBox="0 0 400 600" xmlns="http://www.w3.org/2000/svg">
  <defs>
    <linearGradient id="sky-thistledown-bandits" x1="0" y1="0" x2="0" y2="1">
      <stop offset="0%" stop-color="#fbbf24"/>
      <stop offset="100%" stop-color="#f97316"/>
    </linearGradient>
    <linearGradient id="scrim-thistledown-bandits" x1="0" y1="0" x2="0" y2="1">
      <stop offset="0%" stop-color="#000" stop-opacity="0"/>
      <stop offset="100%" stop-color="#000" stop-opacity="0.85"/>
    </linearGradient>
  </defs>
  <rect width="400" height="600" fill="url(#sky-thistledown-bandits)"/>
  <circle cx="320" cy="90" r="46" fill="#fef3c7" opacity="0.9"/>
        <path d="M 0 600 L 0 460 Q 100 428 200 436 T 400 436 L 400 600 Z" fill="#22c55e" opacity="0.9"/>
        <path d="M 0 600 L 0 500 Q 100 476 200 474 T 400 492 L 400 600 Z" fill="#15803d" opacity="1"/>
        <ellipse cx="308" cy="389" rx="49.50000000000001" ry="54" fill="#166534"/>
          <rect x="302.6" y="429.5" width="10.799999999999999" height="40.5" fill="#166534"/><ellipse cx="188" cy="416" rx="33" ry="36" fill="#166534"/>
          <rect x="184.4" y="443" width="7.199999999999999" height="27" fill="#166534"/><ellipse cx="60" cy="372.8" rx="59.400000000000006" ry="64.8" fill="#166534"/>
          <rect x="53.52" y="421.4" width="12.959999999999999" height="48.6" fill="#166534"/><ellipse cx="52" cy="378.2" rx="56.1" ry="61.199999999999996" fill="#166534"/>
          <rect x="45.88" y="424.1" width="12.24" height="45.9" fill="#166534"/><ellipse cx="308" cy="403.4" rx="40.7" ry="44.4" fill="#166534"/>
          <rect x="303.56" y="436.7" width="8.879999999999999" height="33.300000000000004" fill="#166534"/>
  
  <rect x="0" y="382" width="400" height="218" fill="url(#scrim-thistledown-bandits)"/>
  <text x="200" y="408" font-family="Helvetica, Arial, sans-serif" font-size="11" font-weight="700" letter-spacing="2.5" fill="#fff7ed" text-anchor="middle">ANIMATED ADVENTURE</text>
  <text x="200" y="444" font-family="Georgia, 'Times New Roman', serif" font-size="30" font-weight="700" fill="#fff" text-anchor="middle"><tspan x="200" dy="0">Thistledown and</tspan><tspan x="200" dy="38">the Forest</tspan><tspan x="200" dy="38">Bandits</tspan></text>
  <text x="200" y="584" font-family="Helvetica, Arial, sans-serif" font-size="9" letter-spacing="0.5" fill="#d4d4d8" text-anchor="middle" opacity="0.85">STARRING DESMOND KRAY · DIRECTED BY INGRID SOLHEIM</text>
  <rect x="6" y="6" width="388" height="588" fill="none" stroke="#fff" stroke-width="1" opacity="0.15"/>
</svg>