<svg viewBox="0 0 400 600" xmlns="http://www.w3.org/2000/svg">
  <defs>
    <linearGradient id="sky-thistledown-redux" x1="0" y1="0" x2="0" y2="1">
      <stop offset="0%" stop-color="#fbbf24"/>
      <stop offset="100%" stop-color="#f97316"/>
    </linearGradient>
    <linearGradient id="scrim-thistledown-redux" x1="0" y1="0" x2="0" y2="1">
      <stop offset="0%" stop-color="#000" stop-opacity="0"/>
      <stop offset="100%" stop-color="#000" stop-opacity="0.85"/>
    </linearGradient>
  </defs>
  <rect width="400" height="600" fill="url(#sky-thistledown-redux)"/>
  <circle cx="320" cy="90" r="46" fill="#fef3c7" opacity="0.9"/>
        <path d="M 0 600 L 0 460 Q 100 460 200 428 T 400 444 L 400 600 Z" fill="#22c55e" opacity="0.9"/>
        <path d="M 0 600 L 0 500 Q 100 486 200 472 T 400 472 L 400 600 Z" fill="#15803d" opacity="1"/>
        <ellipse cx="140" cy="389" rx="49.50000000000001" ry="54" fill="#166534"/>
          <rect x="134.6" y="429.5" width="10.799999999999999" height="40.5" fill="#166534"/><ellipse cx="364" cy="376.4" rx="57.2" ry="62.4" fill="#166534"/>
          <rect x="357.76" y="423.2" width="12.48" height="46.800000000000004" fill="#166534"/><ellipse cx="324" cy="378.2" rx="56.1" ry="61.199999999999996" fill="#166534"/>
          <rect x="317.88" y="424.1" width="12.24" height="45.9" fill="#166534"/><ellipse cx="260" cy="412.4" rx="35.2" ry="38.4" fill="#166534"/>
          <rect x="256.16" y="441.2" width="7.68" height="28.8" fill="#166534"/><ellipse cx="20" cy="378.2" rx="56.1" ry="61.199999999999996" fill="#166534"/>
          <rect x="13.879999999999999" y="424.1" width="12.24" height="45.9" fill="#166534"/>
  
  <rect x="0" y="420" width="400" height="180" fill="url(#scrim-thistledown-redux)"/>
  <text x="200" y="446" font-family="Helvetica, Arial, sans-serif" font-size="11" font-weight="700" letter-spacing="2.5" fill="#fff7ed" text-anchor="middle">ANIMATED ADVENTURE</text>
  <text x="200" y="482" font-family="Georgia, 'Times New Roman', serif" font-size="30" font-weight="700" fill="#fff" text-anchor="middle"><tspan x="200" dy="0">Thistledown</tspan><tspan x="200" dy="38">Redux</tspan></text>
  <text x="200" y="584" font-family="Helvetica, Arial, sans-serif" font-size="9" letter-spacing="0.5" fill="#d4d4d8" text-anchor="middle" opacity="0.85">STARRING DESMOND KRAY · DIRECTED BY INGRID SOLHEIM</text>
  <rect x="6" y="6" width="388" height="588" fill="none" stroke="#fff" stroke-width="1" opacity="0.15"/>
</svg>