<svg viewBox="0 0 400 600" xmlns="http://www.w3.org/2000/svg">
  <defs>
    <linearGradient id="sky-vertex-protocol" x1="0" y1="0" x2="0" y2="1">
      <stop offset="0%" stop-color="#0f172a"/>
      <stop offset="100%" stop-color="#1e1b4b"/>
    </linearGradient>
    <linearGradient id="scrim-vertex-protocol" x1="0" y1="0" x2="0" y2="1">
      <stop offset="0%" stop-color="#000" stop-opacity="0"/>
      <stop offset="100%" stop-color="#000" stop-opacity="0.85"/>
    </linearGradient>
  </defs>
  <rect width="400" height="600" fill="url(#sky-vertex-protocol)"/>
  
      <circle cx="384" cy="64" r="1.5" fill="#e0e7ff" opacity="0.38"/><circle cx="208" cy="0" r="1" fill="#e0e7ff" opacity="0.72"/><circle cx="32" cy="0" r="1.2000000000000002" fill="#e0e7ff" opacity="0.44"/><circle cx="96" cy="192" r="2" fill="#e0e7ff" opacity="0.3"/><circle cx="256" cy="64" r="2" fill="#e0e7ff" opacity="0.5"/><circle cx="176" cy="256" r="2" fill="#e0e7ff" opacity="0.78"/><circle cx="176" cy="256" r="1.5" fill="#e0e7ff" opacity="0.33999999999999997"/><circle cx="128" cy="64" r="1.1" fill="#e0e7ff" opacity="0.5800000000000001"/><circle cx="368" cy="64" r="1.8" fill="#e0e7ff" opacity="0.56"/><circle cx="304" cy="128" r="1.4" fill="#e0e7ff" opacity="0.6"/><circle cx="256" cy="64" r="1.5" fill="#e0e7ff" opacity="0.56"/><circle cx="144" cy="128" r="1.2000000000000002" fill="#e0e7ff" opacity="0.38"/><circle cx="320" cy="0" r="1.9000000000000001" fill="#e0e7ff" opacity="0.44"/><circle cx="0" cy="128" r="1.7000000000000002" fill="#e0e7ff" opacity="0.76"/><circle cx="80" cy="0" r="1.8" fill="#e0e7ff" opacity="0.38"/><circle cx="144" cy="0" r="2.1" fill="#e0e7ff" opacity="0.56"/><circle cx="288" cy="128" r="0.9" fill="#e0e7ff" opacity="0.52"/><circle cx="240" cy="0" r="1" fill="#e0e7ff" opacity="0.4"/><circle cx="320" cy="128" r="1.4" fill="#e0e7ff" opacity="0.33999999999999997"/><circle cx="304" cy="0" r="1.9000000000000001" fill="#e0e7ff" opacity="0.6"/><circle cx="160" cy="0" r="2.2" fill="#e0e7ff" opacity="0.33999999999999997"/><circle cx="384" cy="256" r="0.9" fill="#e0e7ff" opacity="0.4"/><circle cx="160" cy="256" r="1.6" fill="#e0e7ff" opacity="0.32"/><circle cx="96" cy="192" r="1.8" fill="#e0e7ff" opacity="0.74"/><circle cx="112" cy="128" r="2.1" fill="#e0e7ff" opacity="0.62"/><circle cx="144" cy="128" r="2.2" fill="#e0e7ff" opacity="0.5800000000000001"/><circle cx="336" cy="64" r="2.1" fill="#e0e7ff" opacity="0.44"/><circle cx="216" cy="192" r="1.5" fill="#e0e7ff" opacity="0.3"/><circle cx="176" cy="0" r="0.8" fill="#e0e7ff" opacity="0.64"/><circle cx="352" cy="0" r="1.4" fill="#e0e7ff" opacity="0.56"/><circle cx="176" cy="192" r="1.2000000000000002" fill="#e0e7ff" opacity="0.3"/><circle cx="112" cy="0" r="1.1" fill="#e0e7ff" opacity="0.33999999999999997"/><circle cx="48" cy="0" r="1.4" fill="#e0e7ff" opacity="0.64"/><circle cx="48" cy="256" r="0.9" fill="#e0e7ff" opacity="0.78"/><circle cx="352" cy="192" r="1.2000000000000002" fill="#e0e7ff" opacity="0.74"/><circle cx="96" cy="192" r="2.1" fill="#e0e7ff" opacity="0.3"/><circle cx="272" cy="64" r="1.6" fill="#e0e7ff" opacity="0.32"/><circle cx="0" cy="0" r="0.8" fill="#e0e7ff" opacity="0.78"/><circle cx="368" cy="0" r="2.2" fill="#e0e7ff" opacity="0.6799999999999999"/><circle cx="368" cy="128" r="1.3" fill="#e0e7ff" opacity="0.33999999999999997"/><circle cx="208" cy="0" r="1.9000000000000001" fill="#e0e7ff" opacity="0.48"/><circle cx="0" cy="0" r="1" fill="#e0e7ff" opacity="0.56"/><circle cx="256" cy="0" r="2.1" fill="#e0e7ff" opacity="0.54"/><circle cx="272" cy="256" r="1.9000000000000001" fill="#e0e7ff" opacity="0.48"/><circle cx="352" cy="192" r="0.8" fill="#e0e7ff" opacity="0.78"/><circle cx="256" cy="128" r="2.2" fill="#e0e7ff" opacity="0.78"/><circle cx="48" cy="64" r="1.9000000000000001" fill="#e0e7ff" opacity="0.48"/><circle cx="176" cy="128" r="1.5" fill="#e0e7ff" opacity="0.42"/><circle cx="224" cy="128" r="0.9" fill="#e0e7ff" opacity="0.33999999999999997"/><circle cx="272" cy="192" r="0.9" fill="#e0e7ff" opacity="0.78"/><circle cx="352" cy="256" r="2.1" fill="#e0e7ff" opacity="0.36"/><circle cx="0" cy="128" r="0.8" fill="#e0e7ff" opacity="0.33999999999999997"/><circle cx="320" cy="0" r="2.1" fill="#e0e7ff" opacity="0.45999999999999996"/><circle cx="64" cy="0" r="1.5" fill="#e0e7ff" opacity="0.48"/><circle cx="128" cy="256" r="1.3" fill="#e0e7ff" opacity="0.5"/><circle cx="48" cy="256" r="1.3" fill="#e0e7ff" opacity="0.6"/><circle cx="288" cy="0" r="1.8" fill="#e0e7ff" opacity="0.45999999999999996"/><circle cx="144" cy="0" r="2.2" fill="#e0e7ff" opacity="0.74"/><circle cx="144" cy="256" r="2.1" fill="#e0e7ff" opacity="0.78"/><circle cx="48" cy="128" r="1.9000000000000001" fill="#e0e7ff" opacity="0.4"/>
      <circle cx="300" cy="120" r="55" fill="#818cf8" opacity="0.85"/>
      <circle cx="300" cy="120" r="70" fill="none" stroke="#a78bfa" stroke-width="2" opacity="0.4"/>
      <path d="M 48 250 H 338" stroke="#a78bfa" stroke-width="1.5" opacity="0.3"/>
              <circle cx="48" cy="250" r="3" fill="#a78bfa" opacity="0.5"/>
              <circle cx="338" cy="250" r="3" fill="#a78bfa" opacity="0.5"/><path d="M 144 306 H 266" stroke="#a78bfa" stroke-width="1.5" opacity="0.3"/>
              <circle cx="144" cy="306" r="3" fill="#a78bfa" opacity="0.5"/>
              <circle cx="266" cy="306" r="3" fill="#a78bfa" opacity="0.5"/><path d="M 86 306 H 322" stroke="#a78bfa" stroke-width="1.5" opacity="0.3"/>
              <circle cx="86" cy="306" r="3" fill="#a78bfa" opacity="0.5"/>
              <circle cx="322" cy="306" r="3" fill="#a78bfa" opacity="0.5"/><path d="M 142 402 H 298" stroke="#a78bfa" stroke-width="1.5" opacity="0.3"/>
              <circle cx="142" cy="402" r="3" fill="#a78bfa" opacity="0.5"/>
              <circle cx="298" cy="402" r="3" fill="#a78bfa" opacity="0.5"/><path d="M 18 234 H 362" stroke="#a78bfa" stroke-width="1.5" opacity="0.3"/>
              <circle cx="18" cy="234" r="3" fill="#a78bfa" opacity="0.5"/>
              <circle cx="362" cy="234" r="3" fill="#a78bfa" opacity="0.5"/><path d="M 106 162 H 362" stroke="#a78bfa" stroke-width="1.5" opacity="0.3"/>
              <circle cx="106" cy="162" r="3" fill="#a78bfa" opacity="0.5"/>
              <circle cx="362" cy="162" r="3" fill="#a78bfa" opacity="0.5"/><path d="M 108 242 H 346" stroke="#a78bfa" stroke-width="1.5" opacity="0.3"/>
              <circle cx="108" cy="242" r="3" fill="#a78bfa" opacity="0.5"/>
              <circle cx="346" cy="242" r="3" fill="#a78bfa" opacity="0.5"/>
      <path d="M 0 600 L 0 480 L 24 420 L 60 468 L 92 410 L 120 476 L 156 410 L 180 476 L 204 424 L 240 468 L 276 438 L 300 472 L 336 428 L 360 472 L 396 420 L 420 480 L 400 600 Z" fill="#1e293b" opacity="0.95"/>
  
  <rect x="0" y="458" width="400" height="142" fill="url(#scrim-vertex-protocol)"/>
  <text x="200" y="484" font-family="Helvetica, Arial, sans-serif" font-size="11" font-weight="700" letter-spacing="2.5" fill="#a78bfa" text-anchor="middle">SCIENCE FICTION</text>
  <text x="200" y="520" font-family="Georgia, 'Times New Roman', serif" font-size="30" font-weight="700" fill="#fff" text-anchor="middle"><tspan x="200" dy="0">Vertex Protocol</tspan></text>
  <text x="200" y="584" font-family="Helvetica, Arial, sans-serif" font-size="9" letter-spacing="0.5" fill="#d4d4d8" text-anchor="middle" opacity="0.85">STARRING BAXTER FALK · DIRECTED BY DARIO CASTELLANO</text>
  <rect x="6" y="6" width="388" height="588" fill="none" stroke="#fff" stroke-width="1" opacity="0.15"/>
</svg>