<svg viewBox="0 0 400 600" xmlns="http://www.w3.org/2000/svg">
  <defs>
    <linearGradient id="sky-wild-meadow-season" x1="0" y1="0" x2="0" y2="1">
      <stop offset="0%" stop-color="#134e4a"/>
      <stop offset="100%" stop-color="#0f766e"/>
    </linearGradient>
    <linearGradient id="scrim-wild-meadow-season" x1="0" y1="0" x2="0" y2="1">
      <stop offset="0%" stop-color="#000" stop-opacity="0"/>
      <stop offset="100%" stop-color="#000" stop-opacity="0.85"/>
    </linearGradient>
  </defs>
  <rect width="400" height="600" fill="url(#sky-wild-meadow-season)"/>
  
      <circle cx="144" cy="24" r="1.9000000000000001" fill="#99f6e4" opacity="0.6799999999999999"/><circle cx="240" cy="116" r="1.9000000000000001" fill="#99f6e4" opacity="0.76"/><circle cx="96" cy="16" r="2.2" fill="#99f6e4" opacity="0.72"/><circle cx="384" cy="128" r="1.8" fill="#99f6e4" opacity="0.38"/><circle cx="128" cy="36" r="1.7000000000000002" fill="#99f6e4" opacity="0.36"/><circle cx="368" cy="36" r="1.6" fill="#99f6e4" opacity="0.33999999999999997"/><circle cx="48" cy="20" r="1.2000000000000002" fill="#99f6e4" opacity="0.44"/><circle cx="40" cy="44" r="1.2000000000000002" fill="#99f6e4" opacity="0.5800000000000001"/><circle cx="304" cy="132" r="2.1" fill="#99f6e4" opacity="0.36"/><circle cx="48" cy="96" r="1.8" fill="#99f6e4" opacity="0.62"/><circle cx="256" cy="72" r="0.8" fill="#99f6e4" opacity="0.74"/><circle cx="176" cy="36" r="1.9000000000000001" fill="#99f6e4" opacity="0.62"/><circle cx="240" cy="28" r="1.5" fill="#99f6e4" opacity="0.6"/><circle cx="112" cy="24" r="0.8" fill="#99f6e4" opacity="0.6"/><circle cx="64" cy="24" r="1.5" fill="#99f6e4" opacity="0.42"/><circle cx="64" cy="52" r="1.4" fill="#99f6e4" opacity="0.5800000000000001"/><circle cx="80" cy="68" r="2.1" fill="#99f6e4" opacity="0.54"/><circle cx="32" cy="52" r="1.2000000000000002" fill="#99f6e4" opacity="0.64"/><circle cx="272" cy="124" r="2.2" fill="#99f6e4" opacity="0.62"/><circle cx="288" cy="104" r="1.7000000000000002" fill="#99f6e4" opacity="0.4"/>
      <circle cx="320" cy="100" r="40" fill="#ccfbf1" opacity="0.7"/>
      <path d="M 0 600 L 0 440 Q 100 394 200 412 T 400 396 L 400 600 Z" fill="#0d9488" opacity="0.6"/>
      <path d="M 0 600 L 0 490 Q 100 470 200 463 T 400 474 L 400 600 Z" fill="#115e59" opacity="0.9"/>
      <path d="M 0 400 Q 100 385 200 400 T 400 400" stroke="#99f6e4" stroke-width="2" fill="none" opacity="0.35"/><path d="M 0 425 Q 100 410 200 425 T 400 425" stroke="#99f6e4" stroke-width="2" fill="none" opacity="0.35"/><path d="M 0 450 Q 100 435 200 450 T 400 450" stroke="#99f6e4" stroke-width="2" fill="none" opacity="0.35"/>
  
  <rect x="0" y="382" width="400" height="218" fill="url(#scrim-wild-meadow-season)"/>
  <text x="200" y="408" font-family="Helvetica, Arial, sans-serif" font-size="11" font-weight="700" letter-spacing="2.5" fill="#99f6e4" text-anchor="middle">DOCUMENTARY</text>
  <text x="200" y="444" font-family="Georgia, 'Times New Roman', serif" font-size="30" font-weight="700" fill="#fff" text-anchor="middle"><tspan x="200" dy="0">Wild Meadow: A</tspan><tspan x="200" dy="38">Season in the</tspan><tspan x="200" dy="38">Grass</tspan></text>
  <text x="200" y="584" font-family="Helvetica, Arial, sans-serif" font-size="9" letter-spacing="0.5" fill="#d4d4d8" text-anchor="middle" opacity="0.85">STARRING NARRATED BY INGRID SOLHEIM · DIRECTED BY PETRA VASILENKO</text>
  <rect x="6" y="6" width="388" height="588" fill="none" stroke="#fff" stroke-width="1" opacity="0.15"/>
</svg>