<svg viewBox="0 0 400 600" xmlns="http://www.w3.org/2000/svg">
  <defs>
    <linearGradient id="sky-wool-and-consequence" x1="0" y1="0" x2="0" y2="1">
      <stop offset="0%" stop-color="#78350f"/>
      <stop offset="100%" stop-color="#7c2d12"/>
    </linearGradient>
    <linearGradient id="scrim-wool-and-consequence" x1="0" y1="0" x2="0" y2="1">
      <stop offset="0%" stop-color="#000" stop-opacity="0"/>
      <stop offset="100%" stop-color="#000" stop-opacity="0.85"/>
    </linearGradient>
  </defs>
  <rect width="400" height="600" fill="url(#sky-wool-and-consequence)"/>
  
      <path d="M 0 600 L 0 470 Q 100 468 200 464 T 400 444 L 400 600 Z" fill="#a16207" opacity="0.9"/>
      <path d="M 0 600 L 0 510 Q 100 498 200 510 T 400 506 L 400 600 Z" fill="#854d0e" opacity="1"/>
      <path d="M 260 60 L 230 140 L 255 140 L 220 230 L 280 130 L 250 130 Z" fill="#fed7aa" opacity="0.5"/>
      <g transform="translate(160,430) scale(1.3)">
    <ellipse cx="0" cy="0" rx="42" ry="30" fill="#1c1917"/>
    <circle cx="-38" cy="-6" r="14" fill="#1c1917"/>
    <circle cx="-18" cy="-22" r="12" fill="#1c1917"/>
    <circle cx="10" cy="-24" r="13" fill="#1c1917"/>
    <circle cx="34" cy="-10" r="12" fill="#1c1917"/>
    <ellipse cx="-52" cy="4" rx="10" ry="8" fill="#1c1917"/>
    <rect x="-25" y="24" width="6" height="20" fill="#1c1917"/>
    <rect x="10" y="26" width="6" height="20" fill="#1c1917"/>
  </g>
  
  <rect x="0" y="420" width="400" height="180" fill="url(#scrim-wool-and-consequence)"/>
  <text x="200" y="446" font-family="Helvetica, Arial, sans-serif" font-size="11" font-weight="700" letter-spacing="2.5" fill="#fed7aa" text-anchor="middle">DARK COMEDY</text>
  <text x="200" y="482" font-family="Georgia, 'Times New Roman', serif" font-size="30" font-weight="700" fill="#fff" text-anchor="middle"><tspan x="200" dy="0">Wool &amp;</tspan><tspan x="200" dy="38">Consequence</tspan></text>
  <text x="200" y="584" font-family="Helvetica, Arial, sans-serif" font-size="9" letter-spacing="0.5" fill="#d4d4d8" text-anchor="middle" opacity="0.85">STARRING OSRIC THORNE · DIRECTED BY ANIKA PETROV</text>
  <rect x="6" y="6" width="388" height="588" fill="none" stroke="#fff" stroke-width="1" opacity="0.15"/>
</svg>